<?xml version="1.0" standalone="no"?>
<!DOCTYPE svg PUBLIC "-//W3C//DTD SVG 20010904//EN"
 "http://www.w3.org/TR/2001/REC-SVG-20010904/DTD/svg10.dtd">
<svg version="1.0" xmlns="http://www.w3.org/2000/svg"
 width="256.000000pt" height="256.000000pt" viewBox="0 0 256.000000 256.000000"
 preserveAspectRatio="xMidYMid meet">
<metadata>
Created by potrace 1.15, written by Peter Selinger 2001-2017
</metadata>
<g transform="translate(0.000000,256.000000) scale(0.100000,-0.100000)"
fill="#000000" stroke="none">
<path d="M1081 2480 c-29 -28 -59 -67 -67 -86 -13 -31 -13 -41 3 -90 24 -76
16 -85 -87 -101 -46 -8 -94 -20 -107 -28 -12 -8 -35 -15 -51 -15 -44 0 -107
-47 -234 -176 -89 -91 -123 -133 -142 -176 -14 -31 -34 -62 -46 -68 -28 -15
-27 -78 5 -288 47 -304 55 -384 55 -533 0 -156 16 -278 65 -486 34 -143 48
-157 207 -208 201 -65 490 -145 617 -171 121 -24 127 -25 194 -10 43 10 136
49 253 108 168 83 190 97 233 147 72 84 90 114 115 188 27 79 64 161 77 169 5
3 9 29 9 58 0 35 5 58 15 66 9 8 15 30 15 58 0 27 9 64 22 91 17 34 23 64 23
116 0 45 7 87 19 117 16 40 17 54 7 92 -6 25 -11 62 -11 83 0 56 -35 229 -59
294 -12 31 -36 83 -54 115 -17 32 -48 95 -68 139 l-35 80 -105 26 c-136 35
-159 45 -254 118 -113 86 -166 105 -283 98 -80 -5 -91 -3 -81 9 6 8 26 14 43
14 46 0 71 21 63 52 -9 34 -25 39 -129 45 -49 3 -88 10 -88 15 0 17 40 86 52
90 20 7 -9 55 -48 78 -52 33 -83 26 -143 -30z m486 -334 c95 -53 95 -52 -8
-137 l-91 -74 69 -64 c37 -35 80 -81 94 -102 14 -22 28 -37 31 -33 8 7 202
-252 252 -336 22 -36 45 -72 52 -80 7 -8 20 -42 29 -75 10 -33 26 -78 35 -100
26 -59 30 -75 20 -75 -16 0 -59 84 -66 130 -4 25 -11 54 -17 65 -14 28 -144
223 -177 265 -15 19 -51 68 -79 109 -28 41 -51 70 -51 63 0 -6 5 -14 10 -17
22 -13 10 -35 -19 -35 -37 0 -97 65 -164 179 l-48 81 -87 -71 c-48 -40 -99
-82 -114 -95 -20 -16 -28 -32 -28 -53 0 -23 -5 -31 -18 -31 -10 0 -22 4 -27 9
-6 6 -44 -18 -98 -62 -84 -69 -87 -73 -82 -107 3 -19 5 -76 5 -125 l0 -90 46
-50 c87 -95 136 -156 130 -162 -7 -7 -72 49 -143 124 -29 30 -57 52 -63 48 -6
-4 -10 5 -10 22 -2 73 -11 219 -15 231 -11 30 -21 0 -15 -41 3 -24 6 -61 6
-83 -1 -39 -1 -39 -39 -36 -21 2 -60 16 -88 32 -27 17 -58 30 -68 30 -20 0
-103 -39 -84 -40 7 0 52 -29 100 -64 48 -36 116 -81 152 -101 128 -70 383
-274 400 -319 20 -53 -3 -52 -81 2 -40 28 -120 84 -178 123 -58 40 -120 85
-138 101 -27 23 -37 27 -48 17 -11 -9 -23 -6 -55 17 -54 38 -160 94 -178 94
-7 0 -36 17 -63 37 -42 31 -53 35 -69 25 -30 -19 -36 -15 -48 36 -44 186 -63
393 -38 409 14 9 27 29 57 89 11 23 78 98 149 167 108 105 135 127 168 132 21
4 55 14 76 22 66 28 106 31 387 29 l275 -1 52 -29z m199 -599 c9 -11 23 -40
32 -65 8 -25 21 -57 29 -71 19 -37 16 -61 -6 -61 -20 0 -56 42 -85 98 -21 40
-55 170 -47 178 3 3 18 -9 33 -28 15 -18 35 -41 44 -51z m-511 -112 c16 -36
28 -80 27 -98 0 -17 6 -51 14 -75 12 -38 12 -45 0 -58 -29 -28 -56 -11 -56 36
0 10 -10 20 -21 23 -18 5 -20 11 -15 34 4 15 17 35 28 44 19 14 19 20 9 52
-18 52 -28 54 -47 7 -18 -46 -47 -52 -52 -11 -3 18 0 22 12 18 10 -4 16 -1 16
9 0 26 31 84 45 84 7 0 25 -29 40 -65z m461 -161 c21 -32 10 -59 -38 -95 -35
-25 -50 -29 -104 -29 -34 0 -74 -4 -88 -10 -21 -8 -26 -6 -30 10 -4 11 -8 29
-11 39 -5 16 -1 19 29 18 41 -1 62 15 81 60 17 41 51 46 61 8 5 -20 9 -23 20
-14 8 7 11 21 8 35 -6 23 -5 23 25 13 18 -6 39 -22 47 -35z m-1178 -63 c50
-34 109 -60 118 -51 9 9 183 -68 214 -94 8 -7 28 -16 43 -20 43 -10 368 -236
340 -236 -6 0 -67 38 -137 85 -69 47 -126 83 -126 80 0 -3 -15 1 -32 10 l-33
15 29 -22 c17 -13 43 -35 59 -50 16 -15 47 -35 68 -45 25 -11 39 -24 39 -35 0
-26 -16 -22 -90 18 -36 20 -97 53 -136 74 -209 112 -455 290 -400 290 10 0 30
-8 44 -19z m492 -466 c107 -12 127 -17 105 -25 -11 -5 -40 -6 -65 -4 -40 4
-42 3 -20 -7 16 -8 77 -11 173 -10 89 2 147 -1 147 -7 0 -17 -30 -22 -100 -16
-54 5 -73 3 -91 -10 -26 -18 -75 -22 -81 -6 -1 5 -21 12 -43 15 -54 8 -97 25
-116 47 -9 10 -24 18 -33 18 -10 0 -14 5 -10 11 4 7 21 9 43 6 20 -4 61 -9 91
-12z"/>
</g>
</svg>
