<?xml version="1.0" standalone="no"?>
<!DOCTYPE svg PUBLIC "-//W3C//DTD SVG 20010904//EN"
 "http://www.w3.org/TR/2001/REC-SVG-20010904/DTD/svg10.dtd">
<svg version="1.0" xmlns="http://www.w3.org/2000/svg"
 width="512.000000pt" height="512.000000pt" viewBox="0 0 512.000000 512.000000"
 preserveAspectRatio="xMidYMid meet">
<metadata>
Created by potrace 1.15, written by Peter Selinger 2001-2017
</metadata>
<g transform="translate(0.000000,512.000000) scale(0.100000,-0.100000)"
fill="#000000" stroke="none">
<path d="M1957 5109 c-108 -26 -217 -94 -279 -176 -66 -87 -95 -176 -113 -345
l-6 -58 -412 0 c-397 0 -412 -1 -454 -21 -51 -24 -91 -78 -99 -131 l-7 -38
-98 0 -99 0 0 -205 0 -205 2170 0 2170 0 0 205 0 205 -99 0 -98 0 -7 38 c-8
53 -48 107 -99 131 -42 20 -57 21 -454 21 l-412 0 -6 58 c-11 110 -28 187 -52
242 -53 118 -141 203 -268 256 l-70 29 -585 2 c-326 1 -602 -3 -623 -8z m1105
-410 c45 -12 62 -41 72 -116 l7 -53 -581 0 -581 0 7 53 c9 72 28 105 67 116
45 13 962 14 1009 0z"/>
<path d="M782 2118 l3 -1633 23 -70 c13 -38 38 -95 55 -125 45 -79 149 -178
232 -222 139 -72 50 -68 1465 -68 1415 0 1326 -4 1465 68 83 44 187 143 232
222 17 30 42 87 55 125 l23 70 3 1633 2 1632 -1780 0 -1780 0 2 -1632z m1178
-148 l0 -1180 -190 0 -190 0 0 1180 0 1180 190 0 190 0 0 -1180z m790 0 l0
-1180 -190 0 -190 0 0 1180 0 1180 190 0 190 0 0 -1180z m790 0 l0 -1180 -190
0 -190 0 0 1180 0 1180 190 0 190 0 0 -1180z"/>
</g>
</svg>
